<svg width="232" height="35" viewBox="0 0 232 35" xmlns="http://www.w3.org/2000/svg"><title>camisimo</title><path d="M12.88 32.656C7.024 32.656 2.32 27.904 2.32 22c0-5.904 4.704-10.656 10.56-10.656V9.52A12.455 12.455 0 0 0 .4 22c0 6.912 5.568 12.48 12.48 12.48v-1.824zM42.64 22c0-6.912-5.568-12.48-12.48-12.48A12.455 12.455 0 0 0 17.68 22c0 6.912 5.664 12.48 12.288 12.48 4.896 0 8.976-3.024 10.752-7.44V34h1.92V22zM19.6 22c0-5.904 4.704-10.656 10.56-10.656 5.856 0 10.56 4.752 10.56 10.656 0 5.904-4.704 10.656-10.56 10.656-5.856 0-10.56-4.752-10.56-10.656zm32.16 12V21.568c.192-5.616 4.848-10.128 10.56-10.128A10.53 10.53 0 0 1 72.88 22v12h1.92V22a10.53 10.53 0 0 1 10.56-10.56A10.53 10.53 0 0 1 95.92 22v12h1.92V22c0-6.912-5.568-12.48-12.48-12.48-5.232 0-9.648 3.792-11.088 8.976A12.44 12.44 0 0 0 62.32 9.52c-4.752 0-8.784 3.12-10.56 7.536V10h-1.92v24h1.92zm53.28-24v24h1.92V10h-1.92zm-.48-8.16c0 .816.624 1.44 1.44 1.44s1.44-.624 1.44-1.44S106.816.4 106 .4s-1.44.624-1.44 1.44zm13.92 10.08c.384 4.848 3.744 5.76 7.68 6.72 3.984 1.008 7.68 2.304 7.68 6.864 0 4.8-4.176 7.056-8.496 7.056-5.52 0-9.744-3.744-9.744-10.56h-1.92c0 7.872 5.088 12.48 11.664 12.48 5.28 0 10.416-2.976 10.416-9.072 0-6.048-5.04-7.536-9.6-8.688-2.736-.672-5.328-1.296-5.712-4.8h10.032V10h-12v1.92zm24-1.92v24h1.92V10h-1.92zM142 1.84c0 .816.624 1.44 1.44 1.44s1.44-.624 1.44-1.44S144.256.4 143.44.4 142 1.024 142 1.84zM154.96 34V21.568c.192-5.616 4.848-10.128 10.56-10.128A10.53 10.53 0 0 1 176.08 22v12H178V22a10.53 10.53 0 0 1 10.56-10.56A10.53 10.53 0 0 1 199.12 22v12h1.92V22c0-6.912-5.568-12.48-12.48-12.48-5.232 0-9.648 3.792-11.088 8.976A12.44 12.44 0 0 0 165.52 9.52c-4.752 0-8.784 3.12-10.56 7.536V10h-1.92v24h1.92zm51.36-12c0 6.912 5.568 12.48 12.48 12.48 6.912 0 12.48-5.568 12.48-12.48 0-6.912-5.568-12.48-12.48-12.48A12.455 12.455 0 0 0 206.32 22zm1.92 0c0-5.904 4.704-10.656 10.56-10.656 5.856 0 10.56 4.752 10.56 10.656 0 5.904-4.704 10.656-10.56 10.656-5.856 0-10.56-4.752-10.56-10.656z" fill="#718D04" fill-rule="evenodd"/></svg>