<svg width="327" height="85" viewBox="0 0 327 85" xmlns="http://www.w3.org/2000/svg"><title>camisimo</title><path d="M18.463 45.913c-8.25 0-14.876-6.723-14.876-15.076 0-8.353 6.627-15.076 14.876-15.076v-2.58c-9.737 0-17.58 7.877-17.58 17.656s7.843 17.656 17.58 17.656v-2.58zm41.922-15.076c0-9.779-7.843-17.656-17.58-17.656-9.737 0-17.58 7.877-17.58 17.656s7.978 17.656 17.31 17.656c6.896 0 12.644-4.278 15.145-10.525v9.846h2.705V30.837zm-32.456 0c0-8.353 6.627-15.076 14.876-15.076 8.249 0 14.875 6.723 14.875 15.076 0 8.353-6.626 15.076-14.875 15.076-8.25 0-14.876-6.723-14.876-15.076zm45.303 16.977V30.226c.27-7.945 6.83-14.329 14.876-14.329 8.249 0 14.875 6.655 14.875 14.94v16.977h2.705V30.837c0-8.285 6.626-14.94 14.876-14.94 8.249 0 14.875 6.655 14.875 14.94v16.977h2.705V30.837c0-9.779-7.844-17.656-17.58-17.656-7.37 0-13.591 5.365-15.62 12.699-2.096-7.334-8.858-12.7-16.836-12.7-6.694 0-12.374 4.415-14.876 10.663V13.86h-2.705v33.954h2.705zm75.054-33.954v33.954h2.705V13.86h-2.705zm-.676-11.545c0 1.155.88 2.038 2.029 2.038 1.15 0 2.028-.883 2.028-2.038 0-1.154-.879-2.037-2.028-2.037-1.15 0-2.029.883-2.029 2.037zm19.609 14.261c.54 6.86 5.274 8.15 10.819 9.508 5.612 1.426 10.818 3.26 10.818 9.71 0 6.791-5.882 9.983-11.968 9.983-7.776 0-13.726-5.297-13.726-14.94h-2.705c0 11.137 7.168 17.656 16.431 17.656 7.438 0 14.673-4.21 14.673-12.834 0-8.557-7.1-10.662-13.523-12.292-3.855-.95-7.506-1.833-8.047-6.79h14.132V13.86h-16.904v2.716zm33.808-2.716v33.954h2.705V13.86h-2.705zm-.676-11.545c0 1.155.879 2.038 2.028 2.038 1.15 0 2.029-.883 2.029-2.038 0-1.154-.88-2.037-2.029-2.037-1.15 0-2.028.883-2.028 2.037zm18.256 45.5v-17.59c.27-7.945 6.83-14.329 14.876-14.329 8.25 0 14.876 6.655 14.876 14.94v16.977h2.704V30.837c0-8.285 6.627-14.94 14.876-14.94 8.249 0 14.875 6.655 14.875 14.94v16.977h2.705V30.837c0-9.779-7.843-17.656-17.58-17.656-7.37 0-13.591 5.365-15.62 12.699-2.096-7.334-8.857-12.7-16.836-12.7-6.694 0-12.374 4.415-14.876 10.663V13.86h-2.704v33.954h2.704zm72.35-16.978c0 9.779 7.843 17.656 17.58 17.656 9.737 0 17.58-7.877 17.58-17.656s-7.843-17.656-17.58-17.656c-9.737 0-17.58 7.877-17.58 17.656zm2.705 0c0-8.353 6.626-15.076 14.875-15.076 8.25 0 14.876 6.723 14.876 15.076 0 8.353-6.627 15.076-14.876 15.076-8.249 0-14.875-6.723-14.875-15.076zM79.536 70.467c0-1.96-1.597-3.565-3.55-3.565-1.952 0-3.55 1.605-3.55 3.566v6.14c0 2.515 2.032 4.555 4.536 4.555 2.505 0 4.536-2.04 4.536-4.555 0-1.803-1.085-3.387-2.603-4.12a3.555 3.555 0 0 0 .63-2.02zm1.183 6.14a3.754 3.754 0 0 1-3.747 3.764 3.754 3.754 0 0 1-3.747-3.763v-2.575h2.761c.907 0 1.736-.337 2.367-.911a3.761 3.761 0 0 1 2.366 3.486zm-7.494-6.14a2.775 2.775 0 0 1 2.761-2.772 2.775 2.775 0 0 1 2.761 2.773 2.775 2.775 0 0 1-2.76 2.773h-2.762v-2.773zm20.51 5.547a5.128 5.128 0 0 0-5.127-5.15 5.128 5.128 0 0 0-5.128 5.15c0 2.852 2.327 5.15 5.049 5.15 2.012 0 3.688-1.249 4.418-3.07v2.871h.788v-4.951zm-9.466 0c0-2.437 1.933-4.398 4.339-4.398 2.406 0 4.339 1.961 4.339 4.398 0 2.436-1.933 4.397-4.34 4.397-2.405 0-4.338-1.961-4.338-4.397zm12.227 4.951h11.833v-9.903h-.789v9.111h-4.733v-9.111h-.789v9.111h-4.733v-9.111h-.789v9.903zm27.571-.554c-2.406 0-4.339-1.961-4.339-4.397 0-2.437 1.933-4.398 4.339-4.398v-.752a5.128 5.128 0 0 0-5.128 5.15 5.128 5.128 0 0 0 5.128 5.15v-.753zm12.227-4.397a5.128 5.128 0 0 0-5.127-5.15 5.128 5.128 0 0 0-5.128 5.15c0 2.852 2.327 5.15 5.049 5.15 2.011 0 3.688-1.249 4.417-3.07v2.871h.79v-4.951zm-9.466 0c0-2.437 1.933-4.398 4.339-4.398 2.406 0 4.338 1.961 4.338 4.398 0 2.436-1.932 4.397-4.338 4.397s-4.339-1.961-4.339-4.397zm14.988 0a4.336 4.336 0 0 1-4.338 4.357v.792a5.128 5.128 0 0 0 5.127-5.15v-4.159h3.55v9.111h.789v-9.903h-5.128v4.952zm7.692 0a5.128 5.128 0 0 0 5.127 5.15 5.128 5.128 0 0 0 5.128-5.15 5.128 5.128 0 0 0-5.128-5.15 5.128 5.128 0 0 0-5.127 5.15zm.788 0a4.336 4.336 0 0 1 4.34-4.358 4.336 4.336 0 0 1 4.338 4.358 4.336 4.336 0 0 1-4.339 4.357 4.336 4.336 0 0 1-4.339-4.357zm20.116-4.952v4.575h-7.1v-4.575h-.788v9.903h.789V76.39h7.1v4.575h.788v-9.903h-.789zm12.188 0v9.903h.79V76.41h3.371l3.728 4.555h.966l-4.043-4.951 4.043-4.952h-.966l-3.728 4.555h-3.372v-4.555h-.789zm10.433 13.865h.789v-6.854c.73 1.823 2.406 3.09 4.338 3.09a5.128 5.128 0 0 0 5.128-5.15 5.128 5.128 0 0 0-5.128-5.15 5.128 5.128 0 0 0-5.127 5.15v8.914zm.789-8.913a4.336 4.336 0 0 1 4.338-4.358 4.336 4.336 0 0 1 4.34 4.358 4.336 4.336 0 0 1-4.34 4.357 4.325 4.325 0 0 1-4.338-4.18v-.177zm21.693 0a5.128 5.128 0 0 0-5.127-5.15 5.128 5.128 0 0 0-5.128 5.15c0 2.852 2.327 5.15 5.049 5.15 2.011 0 3.688-1.249 4.417-3.07v2.871h.79v-4.951zm-9.466 0c0-2.437 1.933-4.398 4.339-4.398 2.406 0 4.338 1.961 4.338 4.398 0 2.436-1.932 4.397-4.338 4.397s-4.339-1.961-4.339-4.397zm16.566 4.397c-2.406 0-4.339-1.961-4.339-4.397 0-2.437 1.933-4.398 4.339-4.398v-.752a5.128 5.128 0 0 0-5.128 5.15 5.128 5.128 0 0 0 5.128 5.15v-.753zm1.972-4.397a5.128 5.128 0 0 0 5.128 5.15 5.128 5.128 0 0 0 5.127-5.15 5.128 5.128 0 0 0-5.127-5.15 5.128 5.128 0 0 0-5.128 5.15zm.789 0a4.336 4.336 0 0 1 4.339-4.358 4.336 4.336 0 0 1 4.338 4.358 4.336 4.336 0 0 1-4.338 4.357 4.336 4.336 0 0 1-4.339-4.357zm10.847-4.16h3.155v9.111h.79v-9.11h3.155v-.793h-7.1v.792zm8.48 5.348c0 2.179 1.775 3.961 3.944 3.961 2.17 0 3.945-1.782 3.945-3.961s-1.775-3.961-3.945-3.961c-1.38 0-2.563.89-3.155 2.159v-4.338h-.789v6.14zm.789 0c0-1.743 1.42-3.17 3.155-3.17 1.736 0 3.156 1.427 3.156 3.17 0 1.743-1.42 3.169-3.156 3.169-1.735 0-3.155-1.426-3.155-3.169zm8.48-6.14v9.903h.789v-9.903h-.789z" fill="#FFF" fill-rule="evenodd"/></svg>