<svg width="429" height="32" viewBox="0 0 429 32" xmlns="http://www.w3.org/2000/svg"><title>Desktop</title><g fill="none" fill-rule="evenodd"><path d="M.081 20.722c.123-.284.204-.609.326-.893 1.14-2.76 3.42-4.017 6.229-4.099 3.583-.162 7.206-.04 10.789-.04h.854V1.365c.245.325.367.447.448.609 3.786 5.925 7.613 11.85 11.359 17.814.57.934 1.099 1.989 1.262 3.044.326 1.988-.814 3.814-2.687 4.748a8.245 8.245 0 0 1-3.786.892c-5.944 0-11.929.041-17.873 0-3.745 0-6.35-2.475-6.84-5.275 0-.04-.08-.122-.121-.162.04-.812.04-1.583.04-2.313zm15.634 4.18c1.587 0 2.85-1.218 2.89-2.8.04-1.583-1.262-2.882-2.85-2.922-1.547 0-2.85 1.258-2.89 2.8 0 1.623 1.262 2.921 2.85 2.921zm87.122-.082c-.773 2.84-2.931 3.693-5.537 3.855-1.14.04-2.32 0-3.46-.08-1.629-.123-3.053-.731-3.908-2.03-.977.609-1.832 1.34-2.85 1.705-2.199.73-4.478.69-6.718.121-1.547-.405-2.605-1.42-3.541-2.921v2.962h-4.967v-6.655c0-.325-.041-.65-.082-.974-.122-.933-.57-1.34-1.384-1.461-.773-.122-1.588.284-1.832 1.096-.203.649-.285 1.38-.326 2.07-.04 1.744 0 3.449 0 5.193v.73h-4.844v-12.62h4.519V17.8c1.384-1.745 3.012-2.516 5.048-2.313 2.158.203 3.379 1.38 3.786 3.49 3.42-4.586 9.445-4.87 13.231-.69 1.059-2.475 3.298-2.76 5.578-2.84 1.14-.041 2.28.04 3.379.243 1.791.284 2.89 1.42 3.501 3.206-1.466.121-2.89.284-4.275.405-.163 0-.366-.162-.488-.324-.57-.852-1.995-1.218-2.85-.69-.244.162-.53.527-.489.771.041.284.367.65.611.73 1.018.244 2.036.366 3.094.569.53.08 1.059.202 1.547.324 1.71.406 2.85 1.42 3.339 3.165-.082.284-.082.65-.082.974zm-8.753-.406c.082.163.163.244.204.366.651 1.258 2.32 1.704 3.46.933.285-.203.53-.609.53-.893-.041-.284-.408-.568-.652-.77-.163-.122-.407-.163-.61-.204-2.036-.487-4.235-.487-6.107-1.785v1.298h-9.73c.122 1.096.488 1.948 1.506 2.313 1.018.406 1.995.244 2.768-.527.326-.365.652-.406 1.14-.365.896.121 1.792.284 2.647.203 1.547-.122 3.175-.366 4.844-.569zm-12.905-3.49h4.681c-.122-1.663-.936-2.596-2.32-2.556-1.384 0-2.28.974-2.361 2.557zm-18.076 7.467h-4.804v-9.17c-.04 0-.082-.041-.122-.041-.082.203-.204.406-.285.608-1.14 2.72-2.32 5.398-3.46 8.116-.164.406-.367.568-.815.568-1.1-.04-2.198-.04-3.257 0-.407 0-.57-.121-.733-.486-.936-2.273-1.872-4.505-2.809-6.737a1.904 1.904 0 0 0-.407-.649c.122 2.597-.488 5.235.448 7.872-1.425 0-2.81.041-4.193-.04-.204 0-.448-.284-.57-.487-.163-.244-.163-.528-.285-.852-.122.08-.285.162-.407.284-1.995 1.582-4.275 1.745-6.636 1.095-1.547-.405-2.443-1.744-2.484-3.246-.04-1.623.692-2.84 2.28-3.368 1.425-.487 2.931-.73 4.397-1.096.651-.162 1.303-.324 1.913-.527.245-.081.652-.325.611-.447-.081-.405-.204-.852-.489-1.095-.895-.69-2.93-.203-3.46.811-.163.325-.366.447-.733.366-1.384-.163-2.728-.284-4.112-.447.163-1.785 1.344-3.124 3.176-3.57 1.669-.407 3.338-.447 5.048-.325 1.303.08 2.606.202 3.868 1.014-.082-.325-.163-.487-.245-.771 1.629 0 3.217 0 4.804.04.163 0 .367.285.407.447a1385.64 1385.64 0 0 1 2.077 6.736c.081.203.122.406.244.73.61-1.947 1.221-3.773 1.791-5.64.204-.65.407-1.298.652-1.948.04-.162.285-.365.447-.365 2.687-.04 5.374 0 8.143 0v12.62zm-21.659-5.924c-1.14.365-2.239.69-3.338 1.055-.692.243-1.018.852-.896 1.46.122.61.652.975 1.384 1.015 1.955.122 3.217-1.38 2.85-3.53zm16.855-11.525h4.804v3.246h-4.804v-3.246z" fill="#D9D9D9"/><path d="M94.084 24.414c-1.669.203-3.297.447-4.926.528-.896.04-1.791-.122-2.646-.203-.448-.04-.774 0-1.14.365-.774.812-1.75.934-2.768.528-1.018-.406-1.385-1.258-1.507-2.313h9.73V22.02c1.914 1.299 4.071 1.299 6.107 1.786.204.04.489.081.61.203.286.203.652.487.652.77.04.285-.244.731-.53.893-1.14.771-2.808.325-3.46-.933 0-.081-.04-.162-.122-.325z" fill="#FFF"/><g fill="#D8D8D8"><path d="M177.363 12.731c-.596 0-1.062.026-1.528 0-.491-.051-.776.104-.931.594-.208.646-.492 1.292-.751 1.938l-1.01 2.558c1.424.18 1.424.18 2.02-.956.698-1.344 1.423-2.687 2.2-4.134zm10.226 15.863c-.88-.181-1.787-.284-2.641-.569-4.142-1.291-6.783-4.908-6.524-8.938.26-4.34 3.236-7.725 7.508-8.603.388-.078.776-.181 1.165-.259h2.537c.724.181 1.45.284 2.122.517 5.903 1.834 8.492 8.577 5.152 13.563-1.683 2.506-4.142 3.746-7.067 4.16a5.33 5.33 0 0 0-.622.129h-1.63zm.698-1.86c4.117 0 7.663-3.307 7.663-7.208 0-4.16-3.34-7.466-7.481-7.466-4.272.025-7.637 3.306-7.663 7.466 0 3.927 3.391 7.208 7.481 7.208zm-24.671-13.951h2.02V25.7h11.157v1.628h-13.177V12.783zm101.429 14.545h-13.177v-14.57h1.967v12.917c.207.025.363.051.492.051h10.33c.129 0 .258-.026.388-.051v1.653zm-53.355-6.045c1.476 2.015 2.925 3.978 4.453 6.045-.88 0-1.683.026-2.486-.026-.155 0-.31-.232-.44-.413a242.664 242.664 0 0 1-3.753-5.245c-.233-.336-.466-.465-.88-.465-1.787.026-3.573 0-5.437 0v6.071h-2.097V12.731c.233 0 .466-.026.7-.026 2.691 0 5.41-.025 8.102 0 .802 0 1.657.078 2.433.285 1.787.465 2.9 1.86 3.055 3.694.155 1.628-.75 3.178-2.356 4.004-.362.233-.776.362-1.294.595zm-8.543-1.809h7.3c.26 0 .492-.052.751-.103 1.191-.259 1.916-1.163 1.968-2.377.051-1.033-.622-1.963-1.735-2.3-.492-.154-1.035-.206-1.553-.206-1.786-.026-3.547 0-5.333 0h-1.424c.026 1.653.026 3.281.026 4.986zm47.504 7.854c-.802 0-1.527.026-2.226-.026-.156 0-.337-.207-.415-.362a108.39 108.39 0 0 1-1.527-2.996c-.155-.31-.336-.414-.673-.414a407.5 407.5 0 0 1-7.973 0c-.389 0-.544.155-.7.465a44.43 44.43 0 0 1-1.5 2.92c-.104.18-.39.361-.596.387-.647.052-1.295.026-2.071.026.103-.233.18-.413.284-.568 2.304-4.496 4.583-9.017 6.86-13.512.182-.362.389-.543.83-.517.75.052 1.682-.206 2.225.13.57.335.777 1.24 1.114 1.911 2.019 3.927 4.012 7.88 6.031 11.807.078.232.182.439.337.749zm-5.333-5.632c-1.19-2.325-2.33-4.599-3.546-6.95-1.191 2.377-2.33 4.625-3.495 6.95h7.041zm-13.461 4.03v1.576h-13.022v-14.52h12.996v1.5h-10.744v4.727h8.051v1.628h-8.05v5.09h10.769zm-7.87-13.537c.466-.543.932-1.085 1.423-1.602.104-.13.311-.207.492-.207 1.036-.026 2.071 0 3.133.104-1.657.594-3.288 1.188-4.945 1.782a.352.352 0 0 1-.103-.077z"/><path d="M177.363 12.731c-.777 1.447-1.476 2.79-2.2 4.16-.596 1.136-.596 1.136-2.02.956l1.01-2.558c.259-.646.543-1.266.75-1.938.156-.49.44-.646.932-.594.44 0 .932-.026 1.528-.026z"/></g><path d="M335.765 9.341c.669.195 1.338.341 2.006.585 3.701 1.461 5.797 5.456 5.262 9.89-.535 4.092-3.656 7.258-7.402 7.697-4.77.536-8.605-3.02-9.185-7.551a.384.384 0 0 0-.09-.195V17.33l.134-.439c.714-3.702 2.676-6.138 5.975-7.21l1.07-.292c.714-.049 1.472-.049 2.23-.049zm-7.759 9.11c0 4.141 2.899 7.357 6.6 7.405 3.79.05 6.777-3.166 6.822-7.307.044-4.19-2.943-7.454-6.733-7.454-3.746-.049-6.644 3.215-6.689 7.356zm78.209-6.966v5.407h7.402v1.705h-7.402v6.772h7.402v1.705h-9.007V9.828h9.007v1.657h-7.402zm-32.46 15.638c-.536 0-.981.049-1.427 0-.179 0-.357-.244-.446-.39-.714-1.607-1.427-3.166-2.096-4.774-.178-.39-.357-.536-.758-.536h-5.841c-.357 0-.535.098-.669.487-.669 1.608-1.427 3.216-2.095 4.872-.134.292-.268.439-.536.39-.445-.049-.891 0-1.382 0 .134-.293.223-.487.268-.682 2.318-5.36 4.682-10.767 7-16.126.045-.243.223-.39.357-.585.178.195.357.342.446.536l6.956 16.223c.044.195.133.341.223.585zm-4.95-7.454c-.892-2.095-1.783-4.092-2.675-6.187-.936 2.144-1.784 4.141-2.72 6.187h5.395zm10.701 7.454h-1.605V9.78c.981 0 1.962-.048 2.943 0 1.249.05 2.542.05 3.79.293 2.007.39 3.255 2.192 3.21 4.433-.044 2.192-1.337 3.995-3.388 4.287-1.472.244-2.988.195-4.459.244h-.49v8.087zm0-15.736v5.895h3.924c.312 0 .58-.097.892-.195 1.16-.34 1.828-1.413 1.828-2.777 0-1.315-.758-2.484-1.917-2.63-1.56-.195-3.121-.195-4.727-.293zm43.43 5.116c1.16-2.095 2.319-4.044 3.433-6.09.268-.487.58-.73 1.115-.682.312.048.669 0 1.115 0-.134.243-.223.438-.312.584-1.383 2.436-2.72 4.872-4.147 7.308-.223.39-.223.682 0 1.023 1.471 2.582 2.943 5.213 4.414 7.795.09.195.178.341.312.633-.624 0-1.114.05-1.65 0-.178 0-.356-.243-.445-.438-1.16-2.046-2.32-4.092-3.478-6.139-.134-.194-.223-.39-.357-.633-.446.73-.803 1.413-1.204 2.095a409.536 409.536 0 0 0-2.675 4.726c-.179.34-.402.438-.714.438-.401-.049-.847 0-1.382 0 .134-.244.223-.438.312-.585a700.012 700.012 0 0 1 4.459-7.843c.223-.39.223-.633 0-1.023-1.382-2.387-2.72-4.823-4.102-7.26-.09-.145-.178-.34-.312-.633.624 0 1.204-.048 1.739 0 .133 0 .267.244.401.439 1.07 2.095 2.274 4.141 3.478 6.285zm-67.329 8.867v1.704h-7.625V9.828h1.56V25.37h6.065zm38.658.048h6.109v1.656h-7.625V9.828h1.561c-.045 5.164-.045 10.328-.045 15.59z" fill="#D8D8D8"/></g></svg>