<?xml version="1.0" encoding="UTF-8" standalone="no"?>
<svg width="232px" height="35px" viewBox="0 0 232 35" version="1.1" xmlns="http://www.w3.org/2000/svg" xmlns:xlink="http://www.w3.org/1999/xlink" xmlns:sketch="http://www.bohemiancoding.com/sketch/ns">
    <!-- Generator: Sketch 3.3.3 (12072) - http://www.bohemiancoding.com/sketch -->
    <title>camisimo</title>
    <desc>Created with Sketch.</desc>
    <defs></defs>
    <g id="Page-1" stroke="none" stroke-width="1" fill="none" fill-rule="evenodd" sketch:type="MSPage">
        <g id="Desktop-HD" sketch:type="MSArtboardGroup" transform="translate(-72.000000, -24.000000)" fill="#718D04">
            <path d="M84.88,56.656 C79.024,56.656 74.32,51.904 74.32,46 C74.32,40.096 79.024,35.344 84.88,35.344 L84.88,33.52 C77.968,33.52 72.4,39.088 72.4,46 C72.4,52.912 77.968,58.48 84.88,58.48 L84.88,56.656 Z M114.64,46 C114.64,39.088 109.072,33.52 102.16,33.52 C95.248,33.52 89.68,39.088 89.68,46 C89.68,52.912 95.344,58.48 101.968,58.48 C106.864,58.48 110.944,55.456 112.72,51.04 L112.72,58 L114.64,58 L114.64,46 Z M91.6,46 C91.6,40.096 96.304,35.344 102.16,35.344 C108.016,35.344 112.72,40.096 112.72,46 C112.72,51.904 108.016,56.656 102.16,56.656 C96.304,56.656 91.6,51.904 91.6,46 L91.6,46 Z M123.76,58 L123.76,45.568 C123.952,39.952 128.608,35.44 134.32,35.44 C140.176,35.44 144.88,40.144 144.88,46 L144.88,58 L146.8,58 L146.8,46 C146.8,40.144 151.504,35.44 157.36,35.44 C163.216,35.44 167.92,40.144 167.92,46 L167.92,58 L169.84,58 L169.84,46 C169.84,39.088 164.272,33.52 157.36,33.52 C152.128,33.52 147.712,37.312 146.272,42.496 C144.784,37.312 139.984,33.52 134.32,33.52 C129.568,33.52 125.536,36.64 123.76,41.056 L123.76,34 L121.84,34 L121.84,58 L123.76,58 Z M177.04,34 L177.04,58 L178.96,58 L178.96,34 L177.04,34 Z M176.56,25.84 C176.56,26.656 177.184,27.28 178,27.28 C178.816,27.28 179.44,26.656 179.44,25.84 C179.44,25.024 178.816,24.4 178,24.4 C177.184,24.4 176.56,25.024 176.56,25.84 L176.56,25.84 Z M190.48,35.92 C190.864,40.768 194.224,41.68 198.16,42.64 C202.144,43.648 205.84,44.944 205.84,49.504 C205.84,54.304 201.664,56.56 197.344,56.56 C191.824,56.56 187.6,52.816 187.6,46 L185.68,46 C185.68,53.872 190.768,58.48 197.344,58.48 C202.624,58.48 207.76,55.504 207.76,49.408 C207.76,43.36 202.72,41.872 198.16,40.72 C195.424,40.048 192.832,39.424 192.448,35.92 L202.48,35.92 L202.48,34 L190.48,34 L190.48,35.92 Z M214.48,34 L214.48,58 L216.4,58 L216.4,34 L214.48,34 Z M214,25.84 C214,26.656 214.624,27.28 215.44,27.28 C216.256,27.28 216.88,26.656 216.88,25.84 C216.88,25.024 216.256,24.4 215.44,24.4 C214.624,24.4 214,25.024 214,25.84 L214,25.84 Z M226.96,58 L226.96,45.568 C227.152,39.952 231.808,35.44 237.52,35.44 C243.376,35.44 248.08,40.144 248.08,46 L248.08,58 L250,58 L250,46 C250,40.144 254.704,35.44 260.56,35.44 C266.416,35.44 271.12,40.144 271.12,46 L271.12,58 L273.04,58 L273.04,46 C273.04,39.088 267.472,33.52 260.56,33.52 C255.328,33.52 250.912,37.312 249.472,42.496 C247.984,37.312 243.184,33.52 237.52,33.52 C232.768,33.52 228.736,36.64 226.96,41.056 L226.96,34 L225.04,34 L225.04,58 L226.96,58 Z M278.32,46 C278.32,52.912 283.888,58.48 290.8,58.48 C297.712,58.48 303.28,52.912 303.28,46 C303.28,39.088 297.712,33.52 290.8,33.52 C283.888,33.52 278.32,39.088 278.32,46 L278.32,46 Z M280.24,46 C280.24,40.096 284.944,35.344 290.8,35.344 C296.656,35.344 301.36,40.096 301.36,46 C301.36,51.904 296.656,56.656 290.8,56.656 C284.944,56.656 280.24,51.904 280.24,46 L280.24,46 Z" id="camisimo" sketch:type="MSShapeGroup"></path>
        </g>
    </g>
</svg>