<?xml version="1.0" encoding="UTF-8" standalone="no"?>
<svg width="327px" height="85px" viewBox="0 0 327 85" version="1.1" xmlns="http://www.w3.org/2000/svg" xmlns:xlink="http://www.w3.org/1999/xlink" xmlns:sketch="http://www.bohemiancoding.com/sketch/ns">
    <!-- Generator: Sketch 3.3.3 (12072) - http://www.bohemiancoding.com/sketch -->
    <title>camisimo</title>
    <desc>Created with Sketch.</desc>
    <defs></defs>
    <g id="Page-1" stroke="none" stroke-width="1" fill="none" fill-rule="evenodd" sketch:type="MSPage">
        <g id="Desktop-HD" sketch:type="MSArtboardGroup" transform="translate(-422.000000, -2763.000000)" fill="#FFFFFF">
            <g id="Subfooter" sketch:type="MSLayerGroup" transform="translate(0.000000, 2748.000000)">
                <g id="camisimo-+-Facebook-black-Copy-+-Instagram-black-Copy-Copy" transform="translate(427.000000, 16.000000)" sketch:type="MSShapeGroup">
                    <path d="M13.4628472,44.9129253 C5.21364779,44.9129253 -1.41275826,38.1899423 -1.41275826,29.8371452 C-1.41275826,21.4843481 5.21364779,14.7613651 13.4628472,14.7613651 L13.4628472,12.1808262 C3.72608725,12.1808262 -4.11741379,20.0582608 -4.11741379,29.8371452 C-4.11741379,39.6160296 3.72608725,47.4934642 13.4628472,47.4934642 L13.4628472,44.9129253 Z M55.3850079,29.8371452 C55.3850079,20.0582608 47.5415068,12.1808262 37.8047469,12.1808262 C28.067987,12.1808262 20.224486,20.0582608 20.224486,29.8371452 C20.224486,39.6160296 28.2032198,47.4934642 37.5342814,47.4934642 C44.431153,47.4934642 50.178546,43.2152023 52.6803524,36.9675817 L52.6803524,46.814375 L55.3850079,46.814375 L55.3850079,29.8371452 Z M22.9291415,29.8371452 C22.9291415,21.4843481 29.5555476,14.7613651 37.8047469,14.7613651 C46.0539463,14.7613651 52.6803524,21.4843481 52.6803524,29.8371452 C52.6803524,38.1899423 46.0539463,44.9129253 37.8047469,44.9129253 C29.5555476,44.9129253 22.9291415,38.1899423 22.9291415,29.8371452 L22.9291415,29.8371452 Z M68.2321217,46.814375 L68.2321217,29.2259649 C68.5025872,21.2806214 75.0613769,14.897183 83.1077271,14.897183 C91.3569264,14.897183 97.9833325,21.5522571 97.9833325,29.8371452 L97.9833325,46.814375 L100.687988,46.814375 L100.687988,29.8371452 C100.687988,21.5522571 107.314394,14.897183 115.563593,14.897183 C123.812793,14.897183 130.439199,21.5522571 130.439199,29.8371452 L130.439199,46.814375 L133.143854,46.814375 L133.143854,29.8371452 C133.143854,20.0582608 125.300353,12.1808262 115.563593,12.1808262 C108.193407,12.1808262 101.972699,17.5456308 99.9442078,24.8797941 C97.8480997,17.5456308 91.0864609,12.1808262 83.1077271,12.1808262 C76.4137046,12.1808262 70.733928,16.594906 68.2321217,22.8425265 L68.2321217,12.8599154 L65.5274661,12.8599154 L65.5274661,46.814375 L68.2321217,46.814375 Z M143.286313,12.8599154 L143.286313,46.814375 L145.990968,46.814375 L145.990968,12.8599154 L143.286313,12.8599154 Z M142.610149,1.31539915 C142.610149,2.46985078 143.489162,3.35266673 144.63864,3.35266673 C145.788119,3.35266673 146.667132,2.46985078 146.667132,1.31539915 C146.667132,0.160947524 145.788119,-0.721868425 144.63864,-0.721868425 C143.489162,-0.721868425 142.610149,0.160947524 142.610149,1.31539915 L142.610149,1.31539915 Z M162.218901,15.5762722 C162.759832,22.435073 167.49298,23.7253425 173.037523,25.0835209 C178.649684,26.5096082 183.856146,28.343149 183.856146,34.7944963 C183.856146,41.5853882 177.97352,44.7771074 171.888045,44.7771074 C164.11216,44.7771074 158.161918,39.4802117 158.161918,29.8371452 L155.457263,29.8371452 C155.457263,40.974208 162.6246,47.4934642 171.888045,47.4934642 C179.325848,47.4934642 186.560801,43.2831112 186.560801,34.6586785 C186.560801,26.1021547 179.46108,23.9969782 173.037523,22.3671641 C169.183389,21.4164392 165.532104,20.5336233 164.991173,15.5762722 L179.122998,15.5762722 L179.122998,12.8599154 L162.218901,12.8599154 L162.218901,15.5762722 Z M196.027095,12.8599154 L196.027095,46.814375 L198.731751,46.814375 L198.731751,12.8599154 L196.027095,12.8599154 Z M195.350932,1.31539915 C195.350932,2.46985078 196.229945,3.35266673 197.379423,3.35266673 C198.528902,3.35266673 199.407915,2.46985078 199.407915,1.31539915 C199.407915,0.160947524 198.528902,-0.721868425 197.379423,-0.721868425 C196.229945,-0.721868425 195.350932,0.160947524 195.350932,1.31539915 L195.350932,1.31539915 Z M213.607356,46.814375 L213.607356,29.2259649 C213.877822,21.2806214 220.436612,14.897183 228.482962,14.897183 C236.732161,14.897183 243.358567,21.5522571 243.358567,29.8371452 L243.358567,46.814375 L246.063223,46.814375 L246.063223,29.8371452 C246.063223,21.5522571 252.689629,14.897183 260.938828,14.897183 C269.188028,14.897183 275.814434,21.5522571 275.814434,29.8371452 L275.814434,46.814375 L278.519089,46.814375 L278.519089,29.8371452 C278.519089,20.0582608 270.675588,12.1808262 260.938828,12.1808262 C253.568642,12.1808262 247.347934,17.5456308 245.319443,24.8797941 C243.223335,17.5456308 236.461696,12.1808262 228.482962,12.1808262 C221.788939,12.1808262 216.109163,16.594906 213.607356,22.8425265 L213.607356,12.8599154 L210.902701,12.8599154 L210.902701,46.814375 L213.607356,46.814375 Z M285.956892,29.8371452 C285.956892,39.6160296 293.800393,47.4934642 303.537153,47.4934642 C313.273913,47.4934642 321.117414,39.6160296 321.117414,29.8371452 C321.117414,20.0582608 313.273913,12.1808262 303.537153,12.1808262 C293.800393,12.1808262 285.956892,20.0582608 285.956892,29.8371452 L285.956892,29.8371452 Z M288.661547,29.8371452 C288.661547,21.4843481 295.287953,14.7613651 303.537153,14.7613651 C311.786352,14.7613651 318.412758,21.4843481 318.412758,29.8371452 C318.412758,38.1899423 311.786352,44.9129253 303.537153,44.9129253 C295.287953,44.9129253 288.661547,38.1899423 288.661547,29.8371452 L288.661547,29.8371452 Z M74.5359412,69.4676599 C74.5359412,67.5067898 72.938504,65.9024416 70.9860808,65.9024416 C69.0336576,65.9024416 67.4362204,67.5067898 67.4362204,69.4676599 L67.4362204,75.607758 C67.4362204,78.1232175 69.4675294,80.1633146 71.9721531,80.1633146 C74.4767768,80.1633146 76.5080858,78.1232175 76.5080858,75.607758 C76.5080858,73.8053421 75.4234063,72.2208006 73.9048549,71.4879502 C74.2992838,70.9135539 74.5359412,70.2203171 74.5359412,69.4676599 L74.5359412,69.4676599 Z M75.719228,75.607758 C75.719228,77.6874686 74.042905,79.3710439 71.9721531,79.3710439 C69.9014012,79.3710439 68.2250783,77.6874686 68.2250783,75.607758 L68.2250783,73.0328781 L70.9860808,73.0328781 C71.8932673,73.0328781 72.7215681,72.6961631 73.3526544,72.1217668 C74.7331557,72.6763563 75.719228,74.0232165 75.719228,75.607758 L75.719228,75.607758 Z M68.2250783,69.4676599 C68.2250783,67.9425387 69.4675294,66.6947123 70.9860808,66.6947123 C72.5046322,66.6947123 73.7470833,67.9425387 73.7470833,69.4676599 C73.7470833,70.992781 72.5046322,72.2406074 70.9860808,72.2406074 L68.2250783,72.2406074 L68.2250783,69.4676599 Z M88.7353827,75.0135549 C88.7353827,72.1613803 86.4476949,69.8637952 83.6078066,69.8637952 C80.7679183,69.8637952 78.4802305,72.1613803 78.4802305,75.0135549 C78.4802305,77.8657295 80.8073612,80.1633146 83.5289208,80.1633146 C85.5405084,80.1633146 87.2168313,78.9154883 87.9465249,77.0932656 L87.9465249,79.965247 L88.7353827,79.965247 L88.7353827,75.0135549 Z M79.2690884,75.0135549 C79.2690884,72.5773225 81.2017901,70.6164524 83.6078066,70.6164524 C86.0138231,70.6164524 87.9465249,72.5773225 87.9465249,75.0135549 C87.9465249,77.4497874 86.0138231,79.4106575 83.6078066,79.4106575 C81.2017901,79.4106575 79.2690884,77.4497874 79.2690884,75.0135549 L79.2690884,75.0135549 Z M91.4963852,79.965247 L103.329253,79.965247 L103.329253,70.0618629 L102.540395,70.0618629 L102.540395,79.1729762 L97.8072482,79.1729762 L97.8072482,70.0618629 L97.0183903,70.0618629 L97.0183903,79.1729762 L92.2852431,79.1729762 L92.2852431,70.0618629 L91.4963852,70.0618629 L91.4963852,79.965247 Z M119.066968,79.4106575 C116.660951,79.4106575 114.728249,77.4497874 114.728249,75.0135549 C114.728249,72.5773225 116.660951,70.6164524 119.066968,70.6164524 L119.066968,69.8637952 C116.227079,69.8637952 113.939391,72.1613803 113.939391,75.0135549 C113.939391,77.8657295 116.227079,80.1633146 119.066968,80.1633146 L119.066968,79.4106575 Z M131.294264,75.0135549 C131.294264,72.1613803 129.006577,69.8637952 126.166688,69.8637952 C123.3268,69.8637952 121.039112,72.1613803 121.039112,75.0135549 C121.039112,77.8657295 123.366243,80.1633146 126.087803,80.1633146 C128.09939,80.1633146 129.775713,78.9154883 130.505407,77.0932656 L130.505407,79.965247 L131.294264,79.965247 L131.294264,75.0135549 Z M121.82797,75.0135549 C121.82797,72.5773225 123.760672,70.6164524 126.166688,70.6164524 C128.572705,70.6164524 130.505407,72.5773225 130.505407,75.0135549 C130.505407,77.4497874 128.572705,79.4106575 126.166688,79.4106575 C123.760672,79.4106575 121.82797,77.4497874 121.82797,75.0135549 L121.82797,75.0135549 Z M136.816269,75.0135549 C136.816269,77.4299806 134.883568,79.3710439 132.477551,79.3710439 L132.477551,80.1633146 C135.31744,80.1633146 137.605127,77.8657295 137.605127,75.0135549 L137.605127,70.8541336 L141.154988,70.8541336 L141.154988,79.965247 L141.943846,79.965247 L141.943846,70.0618629 L136.816269,70.0618629 L136.816269,75.0135549 Z M144.507634,75.0135549 C144.507634,77.8657295 146.795321,80.1633146 149.63521,80.1633146 C152.475098,80.1633146 154.762786,77.8657295 154.762786,75.0135549 C154.762786,72.1613803 152.475098,69.8637952 149.63521,69.8637952 C146.795321,69.8637952 144.507634,72.1613803 144.507634,75.0135549 L144.507634,75.0135549 Z M145.296492,75.0135549 C145.296492,72.5971292 147.229193,70.656066 149.63521,70.656066 C152.041226,70.656066 153.973928,72.5971292 153.973928,75.0135549 C153.973928,77.4299806 152.041226,79.3710439 149.63521,79.3710439 C147.229193,79.3710439 145.296492,77.4299806 145.296492,75.0135549 L145.296492,75.0135549 Z M165.412367,70.0618629 L165.412367,74.6372263 L158.312646,74.6372263 L158.312646,70.0618629 L157.523788,70.0618629 L157.523788,79.965247 L158.312646,79.965247 L158.312646,75.3898835 L165.412367,75.3898835 L165.412367,79.965247 L166.201225,79.965247 L166.201225,70.0618629 L165.412367,70.0618629 Z M177.600221,70.0618629 L177.600221,79.965247 L178.389079,79.965247 L178.389079,75.4096903 L181.761446,75.4096903 L185.4888,79.965247 L186.455151,79.965247 L182.412254,75.0135549 L186.455151,70.0618629 L185.4888,70.0618629 L181.761446,74.6174196 L178.389079,74.6174196 L178.389079,70.0618629 L177.600221,70.0618629 Z M188.032866,83.9266006 L188.821724,83.9266006 L188.821724,77.0734588 C189.551418,78.8956815 191.227741,80.1633146 193.160442,80.1633146 C196.000331,80.1633146 198.288018,77.8657295 198.288018,75.0135549 C198.288018,72.1613803 196.000331,69.8637952 193.160442,69.8637952 C190.320554,69.8637952 188.032866,72.1613803 188.032866,75.0135549 L188.032866,83.9266006 Z M188.821724,75.0135549 C188.821724,72.5971292 190.754426,70.656066 193.160442,70.656066 C195.566459,70.656066 197.499161,72.5971292 197.499161,75.0135549 C197.499161,77.4299806 195.566459,79.3710439 193.160442,79.3710439 C190.81359,79.3710439 188.90061,77.5290145 188.821724,75.1918159 L188.821724,75.0135549 Z M210.515315,75.0135549 C210.515315,72.1613803 208.227628,69.8637952 205.387739,69.8637952 C202.547851,69.8637952 200.260163,72.1613803 200.260163,75.0135549 C200.260163,77.8657295 202.587294,80.1633146 205.308853,80.1633146 C207.320441,80.1633146 208.996764,78.9154883 209.726457,77.0932656 L209.726457,79.965247 L210.515315,79.965247 L210.515315,75.0135549 Z M201.049021,75.0135549 C201.049021,72.5773225 202.981723,70.6164524 205.387739,70.6164524 C207.793756,70.6164524 209.726457,72.5773225 209.726457,75.0135549 C209.726457,77.4497874 207.793756,79.4106575 205.387739,79.4106575 C202.981723,79.4106575 201.049021,77.4497874 201.049021,75.0135549 L201.049021,75.0135549 Z M217.615036,79.4106575 C215.20902,79.4106575 213.276318,77.4497874 213.276318,75.0135549 C213.276318,72.5773225 215.20902,70.6164524 217.615036,70.6164524 L217.615036,69.8637952 C214.775148,69.8637952 212.48746,72.1613803 212.48746,75.0135549 C212.48746,77.8657295 214.775148,80.1633146 217.615036,80.1633146 L217.615036,79.4106575 Z M219.587181,75.0135549 C219.587181,77.8657295 221.874869,80.1633146 224.714757,80.1633146 C227.554645,80.1633146 229.842333,77.8657295 229.842333,75.0135549 C229.842333,72.1613803 227.554645,69.8637952 224.714757,69.8637952 C221.874869,69.8637952 219.587181,72.1613803 219.587181,75.0135549 L219.587181,75.0135549 Z M220.376039,75.0135549 C220.376039,72.5971292 222.30874,70.656066 224.714757,70.656066 C227.120773,70.656066 229.053475,72.5971292 229.053475,75.0135549 C229.053475,77.4299806 227.120773,79.3710439 224.714757,79.3710439 C222.30874,79.3710439 220.376039,77.4299806 220.376039,75.0135549 L220.376039,75.0135549 Z M231.222834,70.8541336 L234.378266,70.8541336 L234.378266,79.965247 L235.167124,79.965247 L235.167124,70.8541336 L238.322555,70.8541336 L238.322555,70.0618629 L231.222834,70.0618629 L231.222834,70.8541336 Z M239.703056,76.201961 C239.703056,78.3807055 241.477986,80.1633146 243.647346,80.1633146 C245.816705,80.1633146 247.591635,78.3807055 247.591635,76.201961 C247.591635,74.0232165 245.816705,72.2406074 243.647346,72.2406074 C242.266844,72.2406074 241.083558,73.131912 240.491914,74.3995451 L240.491914,70.0618629 L239.703056,70.0618629 L239.703056,76.201961 Z M240.491914,76.201961 C240.491914,74.4589654 241.911858,73.0328781 243.647346,73.0328781 C245.382833,73.0328781 246.802777,74.4589654 246.802777,76.201961 C246.802777,77.9449566 245.382833,79.3710439 243.647346,79.3710439 C241.911858,79.3710439 240.491914,77.9449566 240.491914,76.201961 L240.491914,76.201961 Z M248.972136,70.0618629 L248.972136,79.965247 L249.760994,79.965247 L249.760994,70.0618629 L248.972136,70.0618629 Z" id="camisimo"></path>
                </g>
            </g>
        </g>
    </g>
</svg>