<?xml version="1.0" encoding="UTF-8" standalone="no"?>
<svg width="429px" height="32px" viewBox="0 0 429 32" version="1.1" xmlns="http://www.w3.org/2000/svg" xmlns:xlink="http://www.w3.org/1999/xlink" xmlns:sketch="http://www.bohemiancoding.com/sketch/ns">
    <!-- Generator: Sketch 3.3.3 (12072) - http://www.bohemiancoding.com/sketch -->
    <title>Desktop</title>
    <desc>Created with Sketch.</desc>
    <defs></defs>
    <g id="Page-1" stroke="none" stroke-width="1" fill="none" fill-rule="evenodd" sketch:type="MSPage">
        <g id="Desktop" sketch:type="MSArtboardGroup">
            <g id="Davines_logo" sketch:type="MSLayerGroup" transform="translate(0.000000, 1.000000)">
                <g id="Group" sketch:type="MSShapeGroup">
                    <path d="M0.0814229249,19.7217391 C0.203557312,19.4376812 0.284980237,19.1130435 0.407114625,18.8289855 C1.54703557,16.0695652 3.82687747,14.8115942 6.63596838,14.7304348 C10.2185771,14.5681159 13.8418972,14.6898551 17.4245059,14.6898551 L18.2794466,14.6898551 L18.2794466,0.365217391 C18.5237154,0.689855072 18.6458498,0.811594203 18.7272727,0.973913043 C22.5134387,6.89855072 26.3403162,12.8231884 30.0857708,18.7884058 C30.6557312,19.7217391 31.1849802,20.7768116 31.3478261,21.8318841 C31.6735178,23.8202899 30.5335968,25.6463768 28.6608696,26.5797101 C27.4802372,27.1884058 26.1774704,27.4724638 24.8747036,27.4724638 C18.93083,27.4724638 12.9462451,27.5130435 7.00237154,27.4724638 C3.256917,27.4724638 0.651383399,24.9971014 0.16284585,22.1971014 C0.16284585,22.1565217 0.0814229249,22.0753623 0.0407114625,22.0347826 C0.0814229249,21.2231884 0.0814229249,20.4521739 0.0814229249,19.7217391 L0.0814229249,19.7217391 Z M15.7146245,23.9014493 C17.3023715,23.9014493 18.5644269,22.684058 18.6051383,21.1014493 C18.6458498,19.5188406 17.343083,18.2202899 15.755336,18.1797101 C14.2083004,18.1797101 12.9055336,19.4376812 12.8648221,20.9797101 C12.8648221,22.6028986 14.1268775,23.9014493 15.7146245,23.9014493 L15.7146245,23.9014493 Z" id="Shape" fill="#D9D9D9"></path>
                    <path d="M102.837154,23.8202899 C102.063636,26.6608696 99.9059289,27.5130435 97.3003953,27.6753623 C96.1604743,27.715942 94.9798419,27.6753623 93.8399209,27.5942029 C92.2114625,27.4724638 90.7865613,26.8637681 89.9316206,25.5652174 C88.9545455,26.173913 88.0996047,26.9043478 87.0818182,27.2695652 C84.8833992,28 82.6035573,27.9594203 80.3644269,27.3913043 C78.8173913,26.9855072 77.7588933,25.9710145 76.8225296,24.4695652 L76.8225296,27.4318841 L71.8557312,27.4318841 L71.8557312,26.7014493 L71.8557312,20.7768116 C71.8557312,20.4521739 71.8150198,20.1275362 71.7743083,19.8028986 C71.6521739,18.8695652 71.2043478,18.4637681 70.3901186,18.342029 C69.6166008,18.2202899 68.8023715,18.626087 68.5581028,19.4376812 C68.3545455,20.0869565 68.2731225,20.8173913 68.2324111,21.5072464 C68.1916996,23.2521739 68.2324111,24.9565217 68.2324111,26.7014493 L68.2324111,27.4318841 L63.387747,27.4318841 L63.387747,14.8115942 L67.9067194,14.8115942 L67.9067194,16.8 C69.2909091,15.0550725 70.9193676,14.284058 72.9549407,14.4869565 C75.1126482,14.6898551 76.3339921,15.8666667 76.7411067,17.9768116 C80.1608696,13.3913043 86.186166,13.1072464 89.972332,17.2869565 C91.03083,14.8115942 93.2699605,14.5275362 95.5498024,14.4463768 C96.6897233,14.4057971 97.8296443,14.4869565 98.9288538,14.6898551 C100.720158,14.973913 101.819368,16.1101449 102.43004,17.8956522 C100.964427,18.0173913 99.5395257,18.1797101 98.155336,18.3014493 C97.9924901,18.3014493 97.7889328,18.1391304 97.6667984,17.9768116 C97.0968379,17.1246377 95.6719368,16.7594203 94.816996,17.2869565 C94.5727273,17.4492754 94.287747,17.8144928 94.3284585,18.057971 C94.36917,18.342029 94.6948617,18.7072464 94.9391304,18.7884058 C95.956917,19.0318841 96.9747036,19.1536232 98.0332016,19.3565217 C98.5624506,19.4376812 99.0916996,19.5594203 99.5802372,19.6811594 C101.290119,20.0869565 102.43004,21.1014493 102.918577,22.8463768 C102.837154,23.1304348 102.837154,23.4956522 102.837154,23.8202899 L102.837154,23.8202899 Z M94.0841897,23.4144928 C94.1656126,23.5768116 94.2470356,23.657971 94.287747,23.7797101 C94.9391304,25.0376812 96.6083004,25.484058 97.7482213,24.7130435 C98.0332016,24.5101449 98.2774704,24.1043478 98.2774704,23.8202899 C98.2367589,23.5362319 97.8703557,23.2521739 97.626087,23.0492754 C97.4632411,22.9275362 97.2189723,22.8869565 97.015415,22.8463768 C94.9798419,22.3594203 92.7814229,22.3594203 90.9086957,21.0608696 L90.9086957,22.3594203 L81.1786561,22.3594203 C81.3007905,23.4550725 81.6671937,24.3072464 82.6849802,24.6724638 C83.7027668,25.0782609 84.6798419,24.915942 85.4533597,24.1449275 C85.7790514,23.7797101 86.1047431,23.7391304 86.5932806,23.7797101 C87.4889328,23.9014493 88.384585,24.0637681 89.2395257,23.9826087 C90.7865613,23.8608696 92.4150198,23.6173913 94.0841897,23.4144928 L94.0841897,23.4144928 Z M81.1786561,19.9246377 L85.8604743,19.9246377 C85.7383399,18.2608696 84.9241107,17.3275362 83.5399209,17.3681159 C82.1557312,17.3681159 81.2600791,18.342029 81.1786561,19.9246377 L81.1786561,19.9246377 Z" id="Shape" fill="#D9D9D9"></path>
                    <path d="M63.1027668,27.3913043 L58.2988142,27.3913043 L58.2988142,18.2202899 C58.2581028,18.2202899 58.2173913,18.1797101 58.1766798,18.1797101 C58.0952569,18.3826087 57.9731225,18.5855072 57.8916996,18.7884058 C56.7517787,21.5072464 55.5711462,24.1855072 54.4312253,26.9043478 C54.2683794,27.3101449 54.0648221,27.4724638 53.616996,27.4724638 C52.5177866,27.4318841 51.4185771,27.4318841 50.3600791,27.4724638 C49.9529644,27.4724638 49.7901186,27.3507246 49.6272727,26.9855072 C48.6909091,24.7130435 47.7545455,22.4811594 46.8181818,20.2492754 C46.7367589,20.0463768 46.6146245,19.8028986 46.4110672,19.6 C46.5332016,22.1971014 45.9225296,24.8347826 46.8588933,27.4724638 C45.4339921,27.4724638 44.0498024,27.5130435 42.6656126,27.4318841 C42.4620553,27.4318841 42.2177866,27.1478261 42.0956522,26.9449275 C41.9328063,26.7014493 41.9328063,26.4173913 41.8106719,26.0927536 C41.6885375,26.173913 41.5256917,26.2550725 41.4035573,26.3768116 C39.4086957,27.9594203 37.1288538,28.1217391 34.7675889,27.4724638 C33.2205534,27.0666667 32.3249012,25.7275362 32.2841897,24.226087 C32.2434783,22.6028986 32.9762846,21.3855072 34.5640316,20.857971 C35.9889328,20.3710145 37.4952569,20.1275362 38.9608696,19.7623188 C39.612253,19.6 40.2636364,19.4376812 40.8743083,19.2347826 C41.1185771,19.1536232 41.5256917,18.9101449 41.4849802,18.7884058 C41.4035573,18.3826087 41.2814229,17.9362319 40.9964427,17.6927536 C40.1007905,17.0028986 38.0652174,17.4898551 37.5359684,18.5043478 C37.3731225,18.8289855 37.1695652,18.9507246 36.8031621,18.8695652 C35.4189723,18.7072464 34.0754941,18.5855072 32.6913043,18.4231884 C32.8541502,16.6376812 34.0347826,15.2985507 35.8667984,14.8521739 C37.5359684,14.4463768 39.2051383,14.4057971 40.9150198,14.5275362 C42.2177866,14.6086957 43.5205534,14.7304348 44.7826087,15.542029 C44.7011858,15.2173913 44.6197628,15.0550725 44.5383399,14.7710145 C46.1667984,14.7710145 47.7545455,14.7710145 49.3422925,14.8115942 C49.5051383,14.8115942 49.7086957,15.0956522 49.7494071,15.257971 C50.441502,17.4898551 51.1335968,19.7217391 51.8256917,21.9942029 C51.9071146,22.1971014 51.9478261,22.4 52.0699605,22.7246377 C52.6806324,20.7768116 53.2913043,18.9507246 53.8612648,17.084058 C54.0648221,16.4347826 54.2683794,15.7855072 54.5126482,15.1362319 C54.5533597,14.973913 54.7976285,14.7710145 54.9604743,14.7710145 C57.6474308,14.7304348 60.3343874,14.7710145 63.1027668,14.7710145 C63.1027668,18.9507246 63.1027668,23.1710145 63.1027668,27.3913043 L63.1027668,27.3913043 Z M41.4442688,21.4666667 C40.3043478,21.8318841 39.2051383,22.1565217 38.1059289,22.5217391 C37.413834,22.7652174 37.0881423,23.373913 37.2102767,23.9826087 C37.3324111,24.5913043 37.8616601,24.9565217 38.5944664,24.9971014 C40.5486166,25.1188406 41.8106719,23.6173913 41.4442688,21.4666667 L41.4442688,21.4666667 Z" id="Shape" fill="#D9D9D9"></path>
                    <path d="M58.2988142,9.94202899 L63.1027668,9.94202899 L63.1027668,13.1884058 L58.2988142,13.1884058 L58.2988142,9.94202899 L58.2988142,9.94202899 Z" id="Shape" fill="#D9D9D9"></path>
                    <path d="M94.0841897,23.4144928 C92.4150198,23.6173913 90.7865613,23.8608696 89.1581028,23.942029 C88.2624506,23.9826087 87.3667984,23.8202899 86.5118577,23.7391304 C86.0640316,23.6985507 85.7383399,23.7391304 85.3719368,24.1043478 C84.598419,24.915942 83.6213439,25.0376812 82.6035573,24.6318841 C81.5857708,24.226087 81.2193676,23.373913 81.0972332,22.3188406 L90.8272727,22.3188406 L90.8272727,21.0202899 C92.7407115,22.3188406 94.898419,22.3188406 96.9339921,22.8057971 C97.1375494,22.8463768 97.4225296,22.8869565 97.544664,23.0086957 C97.8296443,23.2115942 98.1960474,23.4956522 98.1960474,23.7797101 C98.2367589,24.0637681 97.9517787,24.5101449 97.6667984,24.6724638 C96.5268775,25.4434783 94.8577075,24.9971014 94.2063241,23.7391304 C94.2063241,23.657971 94.1656126,23.5768116 94.0841897,23.4144928 L94.0841897,23.4144928 Z" id="Shape" fill="#FFFFFF"></path>
                </g>
            </g>
            <g id="L'Oréal_logo" sketch:type="MSLayerGroup" transform="translate(163.000000, 9.000000)" fill="#D8D8D8">
                <g id="Page-1" sketch:type="MSShapeGroup">
                    <g id="Desktop-HD">
                        <g id="L'Oréal_logo" transform="translate(0.000000, 0.618178)">
                            <g id="Group" transform="translate(0.461125, 0.581283)">
                                <path d="M13.9017173,2.5318132 C13.3062992,2.5318132 12.8403199,2.55764803 12.3743405,2.5318132 C11.8824734,2.48014354 11.5977083,2.63515252 11.4423819,3.12601425 C11.2352799,3.77188497 10.9505147,4.41775569 10.6916373,5.06362639 C10.3550967,5.91617574 10.018556,6.76872508 9.68201538,7.62127442 C11.1058412,7.80211822 11.1058412,7.80211822 11.7012592,6.66538576 C12.4002283,5.32197468 13.125085,3.9785636 13.9017173,2.5318132 L13.9017173,2.5318132 L13.9017173,2.5318132 Z" id="Shape"></path>
                                <path d="M24.1273752,18.3943979 C23.247192,18.2135541 22.3411211,18.1102148 21.4868256,17.8260317 C17.3447869,16.5342903 14.7042372,12.9174142 14.9631147,8.88718102 C15.2219921,4.54692983 18.1990824,1.16256728 22.4705597,0.284183115 C22.8588759,0.206678628 23.247192,0.103339314 23.6355081,0.0258348286 L26.1725068,0.0258348286 C26.8973636,0.206678628 27.6222204,0.310017942 28.2953017,0.542531399 C34.1977067,2.37680423 36.7864809,9.11969448 33.4469622,14.1058164 C31.764259,16.6117948 29.3049236,17.8518666 26.3796088,18.2652238 C26.1725068,18.2910586 25.9654049,18.3427283 25.7583029,18.3943979 L24.1273752,18.3943979 L24.1273752,18.3943979 L24.1273752,18.3943979 Z M24.8263443,16.5342903 C28.9424952,16.5342903 32.4891158,13.2274323 32.4891158,9.32637311 C32.4891158,5.16696571 29.1495971,1.86010766 25.0075585,1.86010766 C20.7360811,1.88594248 17.3706747,5.16696571 17.3447869,9.32637311 C17.3447869,13.253267 20.7360811,16.5342903 24.8263443,16.5342903 L24.8263443,16.5342903 L24.8263443,16.5342903 Z" id="Shape"></path>
                                <path d="M0.15532645,2.58348286 L2.1745703,2.58348286 L2.1745703,15.5008971 L13.332187,15.5008971 L13.332187,17.1284913 L0.15532645,17.1284913 L0.15532645,2.58348286 L0.15532645,2.58348286 Z" id="Shape"></path>
                                <path d="M101.583498,17.1284913 L88.4066378,17.1284913 L88.4066378,2.55764803 L90.3741062,2.55764803 L90.3741062,15.4750623 C90.581208,15.5008971 90.7365345,15.526732 90.8659733,15.526732 L101.195182,15.526732 C101.324621,15.526732 101.45406,15.5008971 101.583498,15.4750623 L101.583498,17.1284913 L101.583498,17.1284913 Z" id="Shape"></path>
                                <path d="M48.2288628,11.0831415 C49.704464,13.098258 51.1541775,15.061705 52.6815543,17.1284913 C51.801371,17.1284913 50.9988511,17.1543261 50.1963311,17.1026565 C50.0410047,17.1026565 49.8856782,16.8701431 49.7562395,16.6892993 C48.4877402,14.9583658 47.2192408,13.2015974 46.002517,11.444829 C45.7695272,11.1089762 45.5365376,10.9798021 45.1223337,10.9798021 C43.3360796,11.005637 41.5498253,10.9798021 39.685908,10.9798021 L39.685908,17.0509868 L37.5890009,17.0509868 L37.5890009,2.5318132 C37.8219906,2.5318132 38.0549803,2.50597837 38.2879699,2.50597837 C40.980295,2.50597837 43.6985079,2.48014354 46.3908331,2.50597837 C47.193353,2.50597837 48.0476485,2.58348286 48.8242807,2.79016149 C50.610535,3.25518839 51.7237078,4.65026913 51.8790342,6.48454197 C52.0343608,8.11213617 51.1282898,9.66222588 49.5232498,10.4889404 C49.1608214,10.7214539 48.7466175,10.850628 48.2288628,11.0831415 L48.2288628,11.0831415 L48.2288628,11.0831415 Z M39.685908,9.27470345 L46.9862512,9.27470345 C47.2451286,9.27470345 47.4781182,9.22303379 47.7369957,9.17136413 C48.9278317,8.91301585 49.6526885,8.00879685 49.704464,6.7945599 C49.7562395,5.76116677 49.0831582,4.83111293 47.9699853,4.49526017 C47.4781182,4.3402512 46.9344756,4.28858154 46.4167209,4.28858154 C44.6304666,4.26274671 42.8701001,4.28858154 41.083846,4.28858154 L39.6600202,4.28858154 C39.685908,5.94201057 39.685908,7.56960477 39.685908,9.27470345 L39.685908,9.27470345 L39.685908,9.27470345 Z" id="Shape"></path>
                                <path d="M87.1899139,17.1284913 C86.3873939,17.1284913 85.6625372,17.1543261 84.9635681,17.1026565 C84.8082417,17.1026565 84.6270275,16.8959778 84.5493642,16.7409689 C84.0316095,15.7592454 83.5138546,14.7516871 83.0219875,13.7441287 C82.8666611,13.4341108 82.6854469,13.3307715 82.3489062,13.3307715 C79.6824688,13.3566063 77.0160314,13.3566063 74.3754818,13.3307715 C73.9871657,13.3307715 73.8318392,13.4857806 73.6765128,13.7957985 C73.2105334,14.7775219 72.7186663,15.7592454 72.1750238,16.715134 C72.0714728,16.8959778 71.7867077,17.0768217 71.5796057,17.1026565 C70.9324122,17.1543261 70.2852186,17.1284913 69.5085863,17.1284913 C69.6121373,16.8959778 69.6898006,16.715134 69.7933515,16.5601251 C72.0973605,12.064865 74.3754818,7.54376994 76.6536031,3.04850977 C76.8348173,2.68682217 77.0419192,2.50597837 77.4820108,2.5318132 C78.2327553,2.58348286 79.164714,2.32513457 79.7083566,2.66098734 C80.2778869,2.99684011 80.4849888,3.90105911 80.8215294,4.57276466 C82.8407733,8.49965859 84.8341294,12.4523874 86.8533732,16.3792812 C86.9310366,16.6117948 87.0345874,16.8184734 87.1899139,17.1284913 L87.1899139,17.1284913 L87.1899139,17.1284913 Z M81.8570392,11.4964987 C80.666203,9.17136413 79.5271424,6.89789922 78.3104186,4.54692983 C77.1195824,6.92373405 75.9805218,9.17136413 74.8155734,11.4964987 L81.8570392,11.4964987 L81.8570392,11.4964987 Z" id="Shape"></path>
                                <path d="M68.3954135,15.526732 L68.3954135,17.1026565 L55.3738794,17.1026565 L55.3738794,2.58348286 L68.3695257,2.58348286 L68.3695257,4.08190291 L57.6261129,4.08190291 L57.6261129,8.80967653 L65.6772006,8.80967653 L65.6772006,10.4372707 L57.6261129,10.4372707 L57.6261129,15.526732 L68.3954135,15.526732 L68.3954135,15.526732 L68.3954135,15.526732 Z" id="Shape"></path>
                                <path d="M60.52554,1.9892818 C60.9915193,1.4467504 61.4574988,0.904218999 61.9493658,0.387522428 C62.0529167,0.258348286 62.2600187,0.1808438 62.4412329,0.1808438 C63.4767425,0.155008971 64.5122523,0.1808438 65.5736497,0.284183115 C63.9168342,0.87838417 62.2859065,1.47258523 60.629091,2.06678628 C60.5773155,2.04095146 60.5514278,2.01511663 60.52554,1.9892818 L60.52554,1.9892818 L60.52554,1.9892818 Z" id="Shape"></path>
                                <path d="M13.9017173,2.5318132 C13.125085,3.9785636 12.426116,5.32197468 11.7012592,6.69122059 C11.1058412,7.82795305 11.1058412,7.82795305 9.68201538,7.64710925 C10.018556,6.7945599 10.3550967,5.94201057 10.6916373,5.08946122 C10.9505147,4.44359051 11.2352799,3.82355463 11.4423819,3.15184908 C11.5977083,2.66098734 11.8824734,2.50597837 12.3743405,2.55764803 C12.8144321,2.55764803 13.3062992,2.5318132 13.9017173,2.5318132 L13.9017173,2.5318132 L13.9017173,2.5318132 Z" id="Shape"></path>
                            </g>
                        </g>
                    </g>
                </g>
            </g>
            <g id="Olaplex" sketch:type="MSLayerGroup" transform="translate(326.000000, 9.000000)" fill="#D8D8D8">
                <g id="Page-1" sketch:type="MSShapeGroup">
                    <g id="Olaplex">
                        <g id="Group">
                            <path d="M9.76493506,0.341025641 C10.4337662,0.535897436 11.1025974,0.682051282 11.7714286,0.925641026 C15.4722944,2.38717949 17.5679654,6.38205128 17.0329004,10.8153846 C16.4978355,14.9076923 13.3766234,18.074359 9.63116883,18.5128205 C4.86017316,19.0487179 1.02554113,15.4923077 0.445887446,10.9615385 C0.445887446,10.9128205 0.401298701,10.8153846 0.356709957,10.7666667 L0.356709957,8.33076923 C0.401298701,8.18461538 0.445887446,8.03846154 0.49047619,7.89230769 C1.2038961,4.18974359 3.16580087,1.75384615 6.46536797,0.682051282 L7.53549784,0.38974359 C8.24891775,0.341025641 9.00692641,0.341025641 9.76493506,0.341025641 L9.76493506,0.341025641 L9.76493506,0.341025641 Z M2.00649351,9.45128205 C2.00649351,13.5923077 4.9047619,16.8076923 8.60562771,16.8564103 C12.395671,16.9051282 15.3831169,13.6897436 15.4277056,9.54871795 C15.4722944,5.35897436 12.4848485,2.09487179 8.69480519,2.09487179 C4.94935065,2.04615385 2.05108225,5.31025641 2.00649351,9.45128205 L2.00649351,9.45128205 L2.00649351,9.45128205 Z" id="Shape"></path>
                            <path d="M80.2151515,2.48461538 L80.2151515,7.89230769 L87.6168831,7.89230769 L87.6168831,9.5974359 L80.2151515,9.5974359 L80.2151515,16.3692308 L87.6168831,16.3692308 L87.6168831,18.074359 L78.6099567,18.074359 L78.6099567,0.828205128 L87.6168831,0.828205128 L87.6168831,2.48461538 L80.2151515,2.48461538 L80.2151515,2.48461538 L80.2151515,2.48461538 Z" id="Shape"></path>
                            <path d="M47.7545455,18.1230769 C47.2194805,18.1230769 46.7735931,18.1717949 46.3277056,18.1230769 C46.1493506,18.1230769 45.9709957,17.8794872 45.8818182,17.7333333 C45.1683983,16.125641 44.4549784,14.5666667 43.7861472,12.9589744 C43.6077922,12.5692308 43.4294372,12.4230769 43.0281385,12.4230769 L37.187013,12.4230769 C36.830303,12.4230769 36.6519481,12.5205128 36.5181818,12.9102564 C35.8493506,14.5179487 35.091342,16.125641 34.4225108,17.7820513 C34.2887446,18.074359 34.1549784,18.2205128 33.8874459,18.1717949 C33.4415584,18.1230769 32.995671,18.1717949 32.5051948,18.1717949 C32.638961,17.8794872 32.7281385,17.6846154 32.7727273,17.4897436 C35.091342,12.1307692 37.4545455,6.72307692 39.7731602,1.36410256 C39.8177489,1.12051282 39.9961039,0.974358974 40.1298701,0.779487179 C40.3082251,0.974358974 40.4865801,1.12051282 40.5757576,1.31538462 C42.8943723,6.72307692 45.212987,12.1307692 47.5316017,17.5384615 C47.5761905,17.7333333 47.665368,17.8794872 47.7545455,18.1230769 L47.7545455,18.1230769 L47.7545455,18.1230769 Z M42.8051948,10.6692308 C41.9134199,8.57435897 41.021645,6.57692308 40.1298701,4.48205128 C39.1935065,6.62564103 38.3463203,8.62307692 37.4099567,10.6692308 L42.8051948,10.6692308 L42.8051948,10.6692308 Z" id="Shape"></path>
                            <path d="M53.5064935,18.1230769 L51.9012987,18.1230769 L51.9012987,0.779487179 C52.8822511,0.779487179 53.8632035,0.730769231 54.8441558,0.779487179 C56.0926407,0.828205128 57.3857143,0.828205128 58.6341991,1.07179487 C60.6406926,1.46153846 61.8891775,3.26410256 61.8445887,5.50512821 C61.8,7.6974359 60.5069264,9.5 58.4558442,9.79230769 C56.9844156,10.0358974 55.4683983,9.98717949 53.9969697,10.0358974 L53.5064935,10.0358974 L53.5064935,18.1230769 L53.5064935,18.1230769 Z M53.5064935,2.38717949 L53.5064935,8.28205128 L57.430303,8.28205128 C57.7424242,8.28205128 58.0099567,8.18461538 58.3220779,8.08717949 C59.4813853,7.74615385 60.1502165,6.67435897 60.1502165,5.31025641 C60.1502165,3.99487179 59.3922078,2.82564103 58.2329004,2.67948718 C56.6722944,2.48461538 55.1116883,2.48461538 53.5064935,2.38717949 L53.5064935,2.38717949 L53.5064935,2.38717949 Z" id="Shape"></path>
                            <path d="M96.9359307,7.5025641 C98.0952381,5.40769231 99.2545455,3.45897436 100.369264,1.41282051 C100.636797,0.925641026 100.948918,0.682051282 101.483983,0.730769231 C101.796104,0.779487179 102.152814,0.730769231 102.598701,0.730769231 C102.464935,0.974358974 102.375758,1.16923077 102.28658,1.31538462 C100.904329,3.75128205 99.5666667,6.18717949 98.1398268,8.62307692 C97.9168831,9.01282051 97.9168831,9.30512821 98.1398268,9.64615385 C99.6112554,12.2282051 101.082684,14.8589744 102.554113,17.4410256 C102.64329,17.6358974 102.732468,17.7820513 102.866234,18.074359 C102.241991,18.074359 101.751515,18.1230769 101.21645,18.074359 C101.038095,18.074359 100.85974,17.8307692 100.770563,17.6358974 C99.6112554,15.5897436 98.4519481,13.5435897 97.2926407,11.4974359 C97.1588745,11.3025641 97.069697,11.1076923 96.9359307,10.8641026 C96.4900433,11.5948718 96.1333333,12.2769231 95.7320346,12.9589744 C94.8402597,14.5179487 93.9484848,16.0769231 93.05671,17.6846154 C92.878355,18.025641 92.6554113,18.1230769 92.34329,18.1230769 C91.9419913,18.074359 91.4961039,18.1230769 90.961039,18.1230769 C91.0948052,17.8794872 91.1839827,17.6846154 91.2731602,17.5384615 C92.7445887,14.9076923 94.2160173,12.325641 95.7320346,9.69487179 C95.9549784,9.30512821 95.9549784,9.06153846 95.7320346,8.67179487 C94.3497835,6.28461538 93.0121212,3.84871795 91.6298701,1.41282051 C91.5406926,1.26666667 91.4515152,1.07179487 91.3177489,0.779487179 C91.9419913,0.779487179 92.521645,0.730769231 93.05671,0.779487179 C93.1904762,0.779487179 93.3242424,1.02307692 93.4580087,1.21794872 C94.5281385,3.31282051 95.7320346,5.35897436 96.9359307,7.5025641 L96.9359307,7.5025641 L96.9359307,7.5025641 Z" id="Shape"></path>
                            <path d="M29.6069264,16.3692308 L29.6069264,18.074359 L21.9822511,18.074359 L21.9822511,0.828205128 L23.5428571,0.828205128 L23.5428571,16.3692308 L29.6069264,16.3692308 L29.6069264,16.3692308 Z" id="Shape"></path>
                            <path d="M68.265368,16.4179487 L74.374026,16.4179487 L74.374026,18.074359 L66.7493506,18.074359 L66.7493506,0.828205128 L68.3099567,0.828205128 C68.265368,5.99230769 68.265368,11.1564103 68.265368,16.4179487 L68.265368,16.4179487 L68.265368,16.4179487 Z" id="Shape"></path>
                        </g>
                    </g>
                </g>
            </g>
        </g>
    </g>
</svg>